<mxfile host="app.diagrams.net" modified="2020-10-29T07:38:08.999Z" agent="5.0 (Windows NT 10.0; Win64; x64) AppleWebKit/537.36 (KHTML, like Gecko) Chrome/86.0.4240.111 Safari/537.36" etag="O-JARzzSEknIHGip-8YR" version="13.7.3" type="github">
  <diagram id="tOd1ITvcoNVIFTv6Ri5O" name="Page-1">
    <mxGraphModel dx="782" dy="380" grid="1" gridSize="10" guides="1" tooltips="1" connect="1" arrows="1" fold="1" page="1" pageScale="1" pageWidth="1169" pageHeight="1654" math="0" shadow="0">
      <root>
        <mxCell id="0" />
        <mxCell id="1" parent="0" />
        <mxCell id="wlVTKSUEh0EewYj-KUEl-8" style="edgeStyle=orthogonalEdgeStyle;rounded=0;orthogonalLoop=1;jettySize=auto;html=1;exitX=0;exitY=0.5;exitDx=0;exitDy=0;fontFamily=Helvetica;fontSize=16;" edge="1" parent="1" source="wlVTKSUEh0EewYj-KUEl-1" target="wlVTKSUEh0EewYj-KUEl-4">
          <mxGeometry relative="1" as="geometry" />
        </mxCell>
        <mxCell id="wlVTKSUEh0EewYj-KUEl-9" style="edgeStyle=orthogonalEdgeStyle;rounded=0;orthogonalLoop=1;jettySize=auto;html=1;exitX=1;exitY=0.5;exitDx=0;exitDy=0;entryX=0.5;entryY=0;entryDx=0;entryDy=0;fontFamily=Helvetica;fontSize=16;" edge="1" parent="1" source="wlVTKSUEh0EewYj-KUEl-1" target="wlVTKSUEh0EewYj-KUEl-5">
          <mxGeometry relative="1" as="geometry" />
        </mxCell>
        <mxCell id="wlVTKSUEh0EewYj-KUEl-1" value="Programming languages" style="rounded=1;whiteSpace=wrap;html=1;fontSize=16;fillColor=#a20025;strokeColor=#6F0000;fontColor=#ffffff;" vertex="1" parent="1">
          <mxGeometry x="360" y="120" width="120" height="60" as="geometry" />
        </mxCell>
        <mxCell id="wlVTKSUEh0EewYj-KUEl-4" value="Procedural" style="rounded=1;whiteSpace=wrap;html=1;fontSize=16;strokeColor=#6F0000;fontColor=#ffffff;fillColor=#E88B00;" vertex="1" parent="1">
          <mxGeometry x="200" y="200" width="120" height="60" as="geometry" />
        </mxCell>
        <mxCell id="wlVTKSUEh0EewYj-KUEl-5" value="Non-procedural" style="rounded=1;whiteSpace=wrap;html=1;fontSize=16;strokeColor=#6F0000;fontColor=#ffffff;fillColor=#E88B00;" vertex="1" parent="1">
          <mxGeometry x="520" y="200" width="120" height="60" as="geometry" />
        </mxCell>
      </root>
    </mxGraphModel>
  </diagram>
</mxfile>
